<?xml version="1.0" standalone="no"?>
<!DOCTYPE svg PUBLIC "-//W3C//DTD SVG 20010904//EN"
 "http://www.w3.org/TR/2001/REC-SVG-20010904/DTD/svg10.dtd">
<svg version="1.0" xmlns="http://www.w3.org/2000/svg"
 width="853.000000pt" height="1280.000000pt" viewBox="0 0 853.000000 1280.000000"
 preserveAspectRatio="xMidYMid meet">
<metadata>
Created by potrace 1.16, written by Peter Selinger 2001-2019
</metadata>
<g transform="translate(0.000000,1280.000000) scale(0.100000,-0.100000)"
fill="#000000" stroke="none">
<path d="M3377 12060 c-246 -24 -381 -58 -442 -111 -55 -49 -59 -69 -41 -231
61 -541 89 -1108 55 -1108 -4 0 -76 34 -160 75 -132 66 -158 75 -206 75 -156
0 -219 -133 -127 -267 92 -134 278 -253 564 -361 313 -119 665 -195 965 -207
365 -16 683 67 855 222 102 92 114 186 31 256 -43 36 -87 35 -221 -4 -116 -33
-190 -46 -190 -33 0 8 15 54 118 374 28 85 103 292 168 460 64 168 119 323
122 346 17 157 -260 320 -763 448 -230 59 -525 86 -728 66z"/>
<path d="M1038 11350 c-89 -69 -218 -404 -287 -741 -35 -169 -70 -473 -77
-657 -18 -484 78 -1041 250 -1455 77 -187 202 -415 293 -536 23 -31 33 -54 33
-80 -1 -49 -57 -194 -103 -263 -41 -61 -146 -164 -206 -202 -50 -32 -168 -74
-231 -82 -32 -4 -54 -13 -57 -22 -22 -55 130 -277 311 -455 54 -53 96 -100 93
-104 -4 -3 -44 -9 -89 -14 -46 -4 -84 -8 -85 -8 -2 -1 -3 -12 -3 -25 0 -48
130 -194 290 -327 271 -225 750 -465 1104 -553 50 -13 94 -29 100 -38 20 -32
-40 -126 -148 -234 -86 -85 -115 -108 -195 -147 -51 -26 -103 -47 -116 -47
-12 0 -33 -9 -46 -19 -23 -19 -23 -21 -9 -48 37 -67 186 -139 313 -150 37 -3
67 -8 67 -10 0 -2 -14 -31 -31 -64 -48 -97 -71 -198 -72 -319 -1 -181 56 -371
114 -378 14 -2 31 4 39 12 24 30 30 16 30 -66 1 -106 12 -224 46 -475 15 -112
25 -206 21 -209 -4 -4 -35 -11 -69 -16 -286 -39 -514 -378 -535 -794 -13 -258
42 -478 168 -675 50 -77 150 -180 208 -215 17 -10 31 -21 31 -24 0 -3 -19 -14
-43 -25 -68 -32 -159 -130 -185 -200 -49 -127 -37 -203 43 -273 77 -68 153
-85 395 -89 151 -2 206 -7 209 -16 6 -19 78 -85 112 -102 53 -28 180 -55 255
-55 241 0 423 112 457 281 l13 63 62 11 62 12 0 -81 c0 -64 5 -92 24 -132 31
-66 55 -89 140 -130 95 -46 159 -57 296 -52 101 4 123 8 180 35 82 37 133 82
154 133 15 38 17 39 48 32 18 -4 119 -7 223 -7 179 0 195 2 275 27 92 30 209
86 295 143 59 40 187 171 211 217 8 15 18 28 21 28 4 0 57 -25 117 -55 201
-100 386 -140 646 -139 141 1 194 5 275 23 158 34 279 77 430 151 580 288 951
865 1005 1565 26 339 -28 677 -161 1002 -163 398 -188 474 -196 610 -10 163
27 281 118 375 40 40 69 60 109 73 111 37 246 16 354 -56 32 -21 62 -39 66
-39 75 0 -37 326 -174 510 -186 248 -449 421 -746 491 -127 30 -358 33 -505 5
-112 -20 -255 -70 -360 -125 -222 -115 -455 -362 -565 -597 -59 -125 -72 -158
-101 -259 -48 -165 -62 -271 -62 -465 0 -321 56 -553 235 -980 162 -385 192
-495 191 -710 -1 -118 -4 -146 -28 -220 -64 -203 -192 -348 -356 -403 -14 -5
-17 13 -22 143 -13 283 -92 558 -215 739 -46 68 -140 159 -215 208 -49 33 -86
68 -138 136 -143 184 -217 314 -284 496 -55 150 -60 217 -19 305 70 154 65
395 -11 546 -14 27 -25 52 -25 55 0 3 19 5 43 5 63 0 151 26 228 66 69 36 139
101 139 129 0 8 -46 37 -112 69 -130 64 -240 151 -312 246 -47 63 -62 99 -53
123 3 7 47 24 99 37 336 83 745 281 1049 507 237 176 401 371 333 397 -9 3
-42 6 -75 6 -32 0 -59 4 -59 9 0 5 49 58 108 118 154 154 292 344 292 402 0
26 -9 30 -85 46 -115 24 -247 106 -350 217 -69 74 -108 141 -129 222 -24 93
-13 126 96 279 315 440 543 1161 604 1912 17 202 14 631 -5 830 -20 204 -87
468 -137 536 -32 44 -59 58 -110 59 -104 1 -362 -190 -784 -580 -446 -411
-752 -729 -1024 -1063 -63 -77 -92 -106 -104 -103 -104 32 -307 77 -414 91
-27 3 -48 8 -48 9 0 2 7 20 15 40 17 41 11 82 -14 95 -20 11 -129 -6 -249 -39
-80 -23 -108 -22 -84 2 7 7 12 25 12 40 0 23 -4 28 -24 28 -46 0 -571 -138
-713 -188 l-141 -49 -74 115 c-141 220 -367 510 -587 752 -136 149 -515 530
-626 629 -113 100 -231 188 -310 230 -68 36 -121 40 -157 11z m201 -480 c128
-169 240 -370 369 -660 77 -175 192 -484 192 -518 0 -2 -12 8 -27 23 -99 100
-254 177 -406 204 -94 17 -97 12 -97 -123 0 -63 6 -148 14 -189 27 -138 100
-327 172 -446 l27 -44 -84 6 c-46 4 -104 3 -129 -1 -43 -7 -45 -9 -48 -43 -9
-105 106 -273 265 -388 l60 -43 -24 -26 c-39 -43 -101 -141 -144 -229 -22 -46
-42 -83 -44 -83 -2 0 -2 6 0 13 3 6 -17 37 -45 67 -110 121 -173 214 -255 373
-140 278 -205 578 -210 982 -4 274 3 370 40 563 58 303 130 519 219 661 l28
43 35 -33 c19 -19 61 -68 92 -109z m5118 54 c41 -105 83 -340 108 -604 9 -91
20 -194 26 -230 14 -83 14 -435 1 -520 -39 -251 -89 -485 -137 -642 -58 -188
-115 -341 -177 -478 -52 -115 -200 -351 -272 -435 l-26 -30 0 36 c0 143 -103
416 -210 557 -22 29 -40 54 -40 56 0 2 29 20 64 41 125 73 253 220 291 335 26
78 20 93 -45 107 -30 6 -88 12 -127 12 -40 1 -73 4 -73 7 0 4 15 23 34 44 92
102 207 341 252 525 31 127 31 170 2 186 -22 12 -144 6 -228 -12 -98 -21 -253
-97 -325 -161 -19 -16 -35 -28 -35 -25 0 10 73 179 96 222 117 218 166 302
263 455 80 125 205 298 275 380 67 78 237 241 248 238 7 -3 23 -31 35 -64z
m-4341 -441 c43 -48 97 -108 119 -133 22 -25 42 -47 45 -50 55 -54 274 -322
343 -421 76 -108 190 -290 185 -293 -2 -2 -46 -26 -99 -54 -113 -59 -247 -153
-304 -211 -47 -50 -38 -51 35 -6 163 102 455 229 690 300 41 13 147 47 235 75
141 46 345 109 353 110 13 1 -38 -53 -101 -107 -43 -36 -76 -68 -73 -70 2 -3
34 9 70 26 99 48 436 128 436 105 0 -29 -125 -150 -173 -167 -6 -2 -9 -7 -6
-10 3 -4 38 3 77 14 l72 20 158 -26 c256 -43 393 -83 609 -176 112 -49 143
-57 143 -39 0 23 -134 119 -225 161 -27 13 -52 25 -54 26 -2 1 14 22 35 46 21
24 57 65 79 92 115 139 197 227 492 524 l251 255 42 -28 c23 -15 75 -60 115
-99 l73 -72 -64 -110 c-59 -100 -139 -256 -192 -375 -30 -68 -85 -219 -138
-380 -26 -80 -56 -167 -66 -194 -22 -58 -23 -95 -4 -102 8 -3 20 -19 26 -35 7
-16 16 -29 21 -29 5 0 9 -7 9 -15 0 -20 29 -78 44 -87 6 -4 7 -8 2 -8 -5 0 -1
-9 9 -20 22 -24 14 -25 -26 -4 -61 31 -222 74 -318 83 -420 43 -817 -172
-1004 -544 -58 -115 -82 -189 -104 -312 -9 -54 -18 -99 -19 -101 -1 -2 -17 4
-36 14 -109 56 -272 57 -381 2 -22 -11 -40 -18 -42 -16 -1 2 -8 39 -14 83 -40
258 -189 511 -399 677 -131 104 -323 178 -515 199 -103 11 -132 11 -242 -4
-80 -11 -153 -28 -205 -48 -45 -17 -84 -29 -87 -25 -3 3 5 10 18 15 13 5 21
10 17 10 -4 1 17 40 47 88 30 48 55 93 55 101 0 21 -46 230 -77 347 -70 271
-153 506 -266 757 l-26 56 63 74 c57 67 193 197 207 198 3 0 41 -39 85 -87z
m-578 -649 c103 -34 199 -92 283 -171 120 -113 137 -143 181 -321 21 -87 47
-175 58 -196 l19 -39 -53 -57 c-29 -32 -73 -89 -98 -127 -32 -49 -67 -86 -115
-121 -38 -28 -77 -60 -87 -71 -11 -12 -23 -21 -28 -21 -22 0 -130 85 -186 145
-51 56 -122 171 -122 199 0 14 171 -3 250 -25 40 -11 80 -19 88 -17 10 2 -4
30 -50 98 -147 218 -223 426 -243 668 -8 97 -11 95 103 56z m4535 -61 c-50
-225 -158 -436 -327 -638 -42 -49 -76 -93 -76 -98 0 -9 34 -3 121 19 47 12 83
14 146 9 45 -4 85 -10 87 -14 7 -11 -55 -117 -99 -170 -72 -86 -200 -179 -247
-181 -15 0 -88 77 -88 93 0 28 -175 264 -230 310 -29 25 -30 28 -17 54 8 15
45 115 82 221 l68 194 66 52 c179 142 336 212 483 215 l46 1 -15 -67z m-3408
-988 c184 -62 318 -156 424 -298 140 -187 194 -352 194 -587 0 -150 -26 -260
-94 -397 -109 -217 -262 -352 -496 -435 -84 -30 -95 -32 -243 -32 -168 -1
-214 7 -340 57 -178 71 -332 208 -444 394 -103 172 -141 437 -91 630 72 275
257 514 482 622 137 66 213 81 388 77 120 -3 151 -7 220 -31z m2382 25 c335
-45 603 -280 719 -630 26 -79 28 -96 28 -255 1 -160 -1 -176 -28 -265 -52
-172 -118 -283 -234 -391 -113 -108 -212 -167 -352 -211 -66 -20 -95 -23 -235
-23 -148 1 -166 3 -238 28 -263 91 -454 267 -554 512 -133 329 -54 740 189
984 195 194 449 285 705 251z m-1215 -1078 c30 -17 64 -42 77 -56 13 -14 27
-23 31 -21 4 3 11 -12 15 -33 10 -54 88 -233 131 -300 80 -121 271 -285 419
-359 158 -79 259 -103 441 -103 127 0 197 11 309 47 103 33 158 61 277 141
200 133 327 302 398 530 l26 84 24 -54 c61 -133 182 -252 333 -329 55 -27 117
-52 138 -55 21 -4 39 -12 39 -18 -1 -18 -39 -58 -49 -52 -5 4 -12 -2 -16 -11
-3 -10 -27 -35 -53 -55 -26 -21 -67 -56 -92 -79 -25 -22 -66 -55 -92 -72 -27
-16 -48 -34 -48 -39 0 -4 -5 -8 -10 -8 -6 0 -38 -19 -71 -42 -34 -22 -98 -60
-144 -84 l-83 -43 65 -7 c35 -3 84 -4 109 -1 24 2 44 4 44 3 0 -1 -21 -18 -46
-37 l-46 -34 139 -5 138 -5 -84 -87 c-208 -216 -523 -419 -876 -566 -140 -58
-282 -105 -490 -162 -231 -63 -396 -113 -391 -117 2 -2 68 3 146 11 79 9 152
16 164 16 15 -1 36 -23 73 -78 92 -138 227 -257 362 -320 l75 -34 -25 -19
c-74 -57 -200 -92 -331 -93 l-97 0 28 -35 c36 -46 74 -121 100 -199 29 -84 29
-248 1 -357 -11 -43 -22 -81 -25 -84 -3 -3 -51 40 -106 95 -77 77 -108 115
-136 172 -19 40 -38 74 -42 76 -3 2 -6 -51 -6 -117 -1 -136 -14 -194 -71 -312
-55 -114 -223 -320 -244 -299 -5 5 -12 53 -16 107 -4 53 -10 97 -13 97 -3 0
-24 -33 -45 -73 -63 -115 -151 -240 -240 -340 -84 -93 -272 -277 -313 -304
-28 -19 -35 -15 -152 91 -154 140 -266 279 -346 428 -19 35 -35 60 -35 55 0
-4 11 -59 25 -123 14 -64 25 -120 25 -125 0 -15 -120 81 -192 155 -97 98 -152
175 -209 291 -61 125 -81 205 -83 323 -1 103 -2 103 -58 -1 -21 -39 -64 -89
-132 -153 -55 -52 -103 -94 -106 -94 -12 0 -28 46 -45 131 -33 159 -4 358 71
487 14 23 54 75 89 115 35 39 62 73 61 75 -2 1 -25 -7 -51 -19 -61 -27 -202
-37 -272 -20 -64 16 -166 62 -156 71 4 4 29 15 55 24 64 24 188 106 256 169
30 29 89 97 130 152 42 55 81 104 86 108 13 9 44 6 170 -22 91 -20 339 -52
396 -50 41 1 -32 24 -223 70 -507 121 -852 237 -1142 384 -260 131 -459 275
-643 465 l-74 75 148 8 c82 5 151 11 154 13 3 3 -2 9 -10 14 -8 5 -24 16 -35
24 -19 14 -18 15 20 14 60 -2 193 6 173 10 -10 2 -18 8 -18 13 0 5 -4 9 -10 9
-5 0 -47 25 -92 57 -46 31 -123 83 -173 116 -101 68 -227 169 -297 238 -26 25
-50 44 -53 41 -7 -7 -35 18 -35 32 0 6 33 20 73 30 39 10 94 29 120 42 55 27
82 31 52 8 -20 -16 -20 -16 2 -10 12 4 30 2 40 -3 10 -5 59 -19 108 -31 190
-45 268 -81 348 -161 l57 -58 36 15 c31 13 34 17 22 31 -7 10 7 2 32 -15 203
-147 342 -209 530 -237 121 -19 206 -19 311 0 321 56 606 266 760 560 31 60
89 224 90 257 0 12 3 17 6 10 4 -11 8 -11 22 1 9 8 50 26 91 41 103 37 204 32
282 -12z m3492 -1557 c339 -59 681 -311 837 -617 32 -63 81 -189 76 -194 -2
-2 -28 9 -58 26 -74 40 -181 56 -263 40 -275 -53 -411 -366 -317 -725 16 -60
63 -191 105 -289 84 -197 133 -334 166 -471 22 -87 23 -139 5 -265 -1 -14 -8
-69 -14 -122 -6 -53 -17 -121 -25 -150 -37 -135 -56 -196 -70 -223 -9 -17 -16
-35 -16 -42 0 -17 -106 -251 -120 -263 -3 -3 -16 -25 -29 -50 -45 -83 -111
-181 -126 -186 -8 -4 -15 -10 -15 -15 0 -5 -8 -17 -17 -28 -10 -10 -58 -62
-108 -116 -87 -94 -247 -229 -292 -246 -12 -4 -39 -19 -60 -32 -21 -13 -83
-41 -138 -63 -55 -21 -102 -41 -105 -44 -3 -3 -12 -6 -20 -7 -8 -1 -60 -12
-115 -23 -86 -18 -122 -21 -255 -16 -148 5 -217 16 -322 49 -73 23 -159 59
-200 84 -21 13 -43 23 -49 23 -11 0 -10 21 7 147 6 38 9 42 42 48 111 20 253
120 323 227 17 27 36 45 42 41 5 -3 7 -1 4 4 -4 6 9 44 28 85 73 154 94 363
56 565 -21 108 -108 377 -147 455 -13 26 -38 82 -55 125 -17 43 -34 83 -38 88
-5 6 -11 19 -14 30 -3 11 -24 71 -46 134 -54 151 -102 363 -109 481 -14 211
-7 368 22 487 68 290 179 508 350 690 181 192 434 326 681 362 100 14 306 12
399 -4z m-2694 -1705 c0 -18 111 -128 147 -145 l36 -17 -7 -117 c-10 -183
-106 -739 -165 -966 -11 -38 -29 -114 -41 -167 -13 -59 -27 -98 -34 -98 -7 0
-25 -14 -42 -31 -16 -17 -63 -54 -104 -82 -142 -97 -298 -142 -411 -118 -80
16 -168 58 -179 85 -4 12 -1 184 7 385 13 309 14 364 2 372 -11 7 -11 9 3 9 9
0 18 3 20 8 2 4 20 20 41 35 20 15 37 32 37 38 0 5 9 20 21 32 58 61 194 290
183 309 -3 4 2 5 10 2 11 -4 13 0 9 15 -3 12 -1 21 5 21 6 0 13 -13 17 -30 4
-16 9 -30 11 -30 3 0 29 16 59 34 120 77 282 273 337 408 21 52 38 74 38 48z
m-1976 -276 c12 -13 18 -21 75 -109 72 -111 159 -184 301 -256 47 -23 89 -47
95 -53 5 -6 25 -41 44 -77 36 -71 54 -95 139 -193 30 -34 58 -71 64 -83 6 -13
19 -25 29 -28 18 -6 19 -22 16 -290 -1 -157 1 -277 5 -267 4 9 7 -12 7 -47 1
-35 -1 -62 -5 -59 -3 3 -26 -1 -51 -8 -61 -18 -136 -18 -231 2 -90 18 -238 86
-246 111 -3 10 -14 65 -26 123 -11 58 -27 123 -35 145 -7 22 -21 76 -30 120
-10 44 -24 109 -31 145 -8 36 -16 76 -18 90 -3 14 -16 81 -30 150 -42 209 -85
470 -90 555 -3 44 -3 71 0 61 4 -11 11 -25 18 -32z m2303 -194 c49 -104 138
-251 190 -316 18 -23 33 -43 33 -46 0 -3 -17 -8 -39 -11 -21 -2 -77 -24 -124
-47 -66 -32 -104 -60 -162 -116 -41 -41 -82 -88 -90 -104 -19 -38 -28 -39 -14
-3 23 61 101 527 125 748 l6 60 16 -35 c8 -19 35 -78 59 -130z m320 -461 c124
-46 253 -180 324 -337 95 -208 147 -535 119 -738 -10 -76 -34 -141 -59 -164
-4 -3 -15 -21 -25 -40 -11 -19 -36 -52 -58 -73 -21 -21 -38 -43 -38 -48 0 -5
-3 -9 -8 -9 -4 0 -19 -10 -33 -22 -38 -35 -174 -97 -254 -117 -187 -47 -463
20 -565 136 -57 65 -108 241 -106 362 1 21 -3 37 -8 34 -10 -7 1 60 26 157 11
41 26 102 34 135 7 33 22 102 34 153 44 199 130 354 273 493 37 36 65 52 125
72 94 32 144 33 219 6z"/>
<path d="M2476 8326 c-83 -31 -154 -103 -205 -209 -44 -89 -61 -168 -61 -277
0 -162 46 -286 141 -382 45 -45 68 -60 114 -73 251 -73 475 275 401 625 -27
129 -101 243 -192 296 -54 32 -142 41 -198 20z m239 -180 c62 -26 89 -128 43
-160 -36 -26 -93 -21 -117 10 -33 42 -25 131 13 156 15 11 22 10 61 -6z"/>
<path d="M4551 8319 c-116 -35 -214 -160 -257 -329 -25 -97 -15 -273 19 -359
72 -176 169 -260 300 -261 75 0 118 20 184 86 59 59 107 147 128 236 19 81 19
235 0 317 -31 131 -116 251 -210 295 -45 22 -120 28 -164 15z m218 -184 c28
-14 61 -76 61 -113 0 -37 -29 -62 -71 -62 -55 0 -74 12 -93 61 -14 33 -15 48
-6 75 18 53 56 67 109 39z"/>
<path d="M3440 7349 c-194 -52 -252 -142 -180 -278 54 -99 174 -213 257 -243
l34 -12 -3 -106 -3 -105 -73 -37 c-62 -32 -83 -38 -136 -38 -87 0 -147 23
-211 82 -34 31 -61 48 -70 44 -19 -7 -19 -20 -1 -54 69 -131 320 -181 479 -95
l48 27 52 -26 c136 -68 292 -57 403 27 41 32 70 91 54 111 -19 22 -39 17 -67
-16 -85 -102 -258 -117 -371 -33 l-33 25 3 95 c3 84 6 97 23 107 111 62 185
133 234 224 57 109 43 210 -38 270 -73 53 -261 68 -401 31z"/>
</g>
</svg>
