<?xml version="1.0" standalone="no"?>
<!DOCTYPE svg PUBLIC "-//W3C//DTD SVG 20010904//EN"
 "http://www.w3.org/TR/2001/REC-SVG-20010904/DTD/svg10.dtd">
<svg version="1.0" xmlns="http://www.w3.org/2000/svg"
 width="1024.000000pt" height="1024.000000pt" viewBox="0 0 1024.000000 1024.000000"
 preserveAspectRatio="xMidYMid meet">
<metadata>
Created by potrace 1.16, written by Peter Selinger 2001-2019
</metadata>
<g transform="translate(0.000000,1024.000000) scale(0.100000,-0.100000)"
fill="#000000" stroke="none">
<path d="M3490 10229 c-8 -5 -67 -33 -130 -63 -128 -60 -285 -161 -385 -250
-82 -73 -168 -174 -159 -188 4 -6 3 -8 -3 -5 -18 11 -76 -94 -77 -138 -1 -22
-4 -43 -8 -46 -5 -3 1 -33 13 -67 20 -59 57 -116 212 -327 189 -257 438 -654
437 -699 0 -6 -35 -28 -78 -48 l-77 -37 -105 107 c-184 187 -338 328 -475 432
-22 16 -53 40 -69 53 -16 12 -53 40 -81 62 -29 22 -102 79 -161 126 -290 228
-674 455 -814 481 -68 13 -98 7 -139 -27 -39 -34 -56 -69 -86 -180 -67 -248
-74 -904 -15 -1330 69 -494 248 -1015 446 -1301 93 -134 250 -313 351 -400 37
-32 73 -64 78 -70 8 -8 110 -85 214 -160 2 -2 0 -35 -4 -73 -5 -54 -14 -81
-36 -114 -29 -42 -38 -94 -19 -113 25 -25 -122 -127 -250 -173 -97 -35 -129
-69 -108 -116 7 -15 17 -24 25 -21 8 3 13 -2 13 -14 0 -11 3 -20 8 -20 4 0 27
-19 51 -41 83 -75 208 -148 299 -174 20 -6 13 -12 -53 -45 -79 -40 -104 -62
-105 -93 -1 -49 176 -170 420 -289 424 -206 610 -268 1030 -344 74 -13 148
-24 164 -24 24 0 9 -10 -70 -50 -141 -72 -274 -202 -290 -286 -5 -29 -2 -38
20 -59 14 -13 26 -19 26 -12 0 8 2 9 8 1 4 -6 20 -14 37 -17 30 -5 193 7 242
19 l28 7 -21 -24 c-37 -41 -81 -154 -94 -242 -17 -111 6 -221 53 -251 24 -17
63 -11 131 18 21 9 41 16 43 16 3 0 2 -21 -1 -47 -4 -27 -8 -68 -10 -93 -17
-178 -131 -506 -224 -642 -16 -23 -39 -61 -51 -83 -12 -22 -26 -47 -31 -55
-99 -151 -295 -523 -363 -690 -90 -221 -140 -422 -152 -617 l-7 -112 -43 29
c-67 46 -111 107 -141 195 -25 76 -26 86 -20 215 7 162 23 237 87 400 16 41
34 83 39 92 42 75 94 271 111 417 21 185 -2 471 -47 594 -8 23 -19 56 -23 72
-9 36 -99 219 -128 261 -75 107 -97 134 -102 125 -4 -6 -12 -1 -20 12 -13 20
-13 21 2 8 10 -7 17 -9 17 -4 0 15 -35 43 -53 43 -9 0 -17 5 -17 11 0 5 6 7
13 4 6 -4 -28 32 -77 80 -53 51 -95 84 -103 81 -8 -3 -12 -2 -9 3 7 10 -59 52
-85 54 -10 1 -17 5 -16 10 3 12 -167 84 -238 100 -161 38 -367 54 -510 38
-174 -19 -436 -94 -555 -158 -123 -67 -279 -191 -272 -215 1 -5 -2 -7 -7 -4
-12 8 -61 -73 -61 -100 0 -34 28 -61 77 -74 84 -23 212 -91 253 -134 52 -55
80 -92 80 -105 0 -6 4 -11 8 -11 4 0 14 -21 21 -47 41 -154 20 -309 -74 -548
-170 -433 -227 -772 -181 -1070 43 -272 149 -470 371 -689 53 -53 192 -141
290 -185 84 -37 101 -54 63 -59 -29 -5 -63 -33 -63 -52 0 -15 13 -30 79 -88
72 -61 241 -128 386 -151 112 -18 296 -14 379 9 l73 21 33 -21 c27 -16 49 -20
130 -20 126 0 199 22 305 91 56 37 160 134 160 150 0 22 18 5 39 -38 39 -80
107 -159 180 -208 150 -99 270 -139 576 -191 137 -24 189 -28 365 -28 231 -1
312 12 395 65 51 32 95 109 95 166 0 37 3 39 59 52 l41 9 26 -52 c76 -154 146
-202 333 -227 151 -20 392 6 486 53 48 24 105 76 105 96 0 11 8 13 33 8 88
-16 327 -28 452 -23 206 8 307 48 353 137 19 38 23 57 20 120 -8 179 -131 307
-313 326 -36 4 -65 8 -65 8 0 1 23 26 51 55 62 65 127 163 168 258 90 207 95
498 11 668 -38 76 -108 170 -126 169 -7 -1 -12 3 -11 9 3 16 -87 80 -150 106
-43 18 -83 25 -155 29 -91 4 -98 3 -98 -14 0 -16 -2 -17 -10 -4 -9 13 -11 13
-20 0 -21 -32 -9 36 21 120 46 132 106 353 144 532 60 287 88 364 150 416 36
29 155 90 435 225 432 206 598 307 623 380 4 11 -1 25 -14 38 l-20 20 96 101
c87 92 122 139 236 309 60 90 183 343 235 484 26 72 67 180 91 242 23 61 43
118 43 126 0 9 17 26 38 38 130 80 265 267 313 432 31 108 33 112 91 142 118
61 181 122 233 224 32 64 38 167 12 216 -34 67 -111 106 -169 86 -17 -6 -33
-9 -36 -6 -3 2 8 21 23 40 31 42 52 140 41 197 -8 45 -60 115 -103 140 -17 10
-53 21 -80 24 -91 11 -145 -34 -368 -311 -16 -20 -16 -19 -10 5 33 124 32 286
-2 361 -24 54 -81 94 -149 105 -54 8 -137 -16 -192 -56 -77 -56 -99 -138 -82
-305 12 -116 14 -108 -84 -390 -46 -134 -71 -225 -85 -310 -22 -136 -47 -204
-121 -337 -48 -85 -164 -256 -215 -317 -38 -46 -170 -196 -190 -216 -49 -49
-176 -155 -230 -192 -84 -56 -237 -139 -269 -145 -27 -5 -29 -1 -17 42 12 40
-12 78 -55 86 -33 6 -205 -1 -316 -12 -27 -3 -48 -2 -47 3 0 4 50 33 111 63
137 69 351 208 483 314 104 84 317 291 371 361 17 22 55 69 83 105 78 97 195
278 219 339 39 97 24 133 -63 156 l-46 11 53 34 c76 49 132 104 158 155 l23
44 -24 20 c-13 11 -51 29 -84 41 -123 44 -165 63 -165 75 0 6 9 47 21 91 15
59 23 125 27 258 l7 179 29 17 c42 23 54 64 31 106 -15 29 -22 33 -44 27 -14
-3 -31 -10 -37 -15 -8 -6 -15 6 -23 39 -39 154 -152 344 -271 457 -78 73 -74
62 -55 156 17 85 36 315 42 495 10 369 -34 752 -132 1160 -69 281 -150 496
-236 621 -49 72 -125 92 -199 54 -48 -24 -202 -178 -193 -193 3 -5 2 -7 -4 -4
-10 7 -36 -19 -66 -63 -9 -14 -31 -45 -48 -70 -76 -107 -229 -342 -242 -370
-4 -8 -41 -67 -82 -130 -166 -256 -311 -524 -405 -745 -23 -55 -50 -118 -60
-140 -10 -22 -21 -51 -25 -64 -6 -21 -11 -23 -58 -17 -29 3 -91 8 -139 12
l-87 6 61 41 c34 23 117 95 185 161 102 98 129 131 158 190 60 121 57 194 -10
256 -24 23 -34 25 -110 24 -83 -1 -85 -1 -225 -72 -77 -40 -144 -72 -149 -72
-5 0 -16 33 -25 73 -18 80 -35 150 -72 307 -14 58 -31 134 -38 170 -8 36 -25
119 -39 185 -14 66 -36 179 -48 250 -12 72 -36 189 -53 260 l-31 130 -500 2
c-300 1 -506 -2 -515 -8z m2941 -616 c63 -79 128 -310 179 -639 11 -71 20
-146 20 -167 0 -21 4 -36 8 -33 5 3 9 -9 9 -27 0 -18 1 -45 2 -62 2 -26 4 -27
10 -10 6 14 10 -4 15 -57 4 -43 12 -78 17 -78 6 0 7 5 3 12 -4 7 -3 8 4 4 16
-10 15 -26 0 -26 -8 0 -14 -18 -15 -50 -2 -31 1 -50 8 -50 6 0 9 -7 5 -15 -3
-9 0 -15 10 -15 12 0 12 -4 4 -20 -9 -17 -8 -20 10 -20 12 0 20 -7 21 -17 0
-13 3 -11 10 7 8 19 6 27 -7 37 -10 7 -14 13 -8 13 5 0 2 5 -6 11 -12 8 -7 9
18 6 36 -4 44 8 10 16 -18 5 -19 8 -8 21 10 13 10 16 -1 17 -10 0 -11 2 -1 6
6 2 12 9 12 14 0 5 -6 8 -12 6 -15 -2 -12 42 3 58 5 5 9 16 9 25 -1 12 -4 11
-15 -4 -14 -18 -14 -12 -10 55 3 41 5 92 5 114 -1 38 0 39 14 20 15 -20 12
-71 -5 -90 -12 -13 -11 -45 1 -45 6 0 10 7 10 15 0 8 5 15 10 15 6 0 10 25 10
55 0 34 -4 55 -11 55 -6 0 -9 7 -5 15 3 8 1 15 -4 15 -6 0 -10 8 -11 18 -1 11
-4 9 -9 -8 -6 -18 -8 -11 -6 28 4 69 13 75 22 15 l8 -48 6 40 c9 67 29 -112
36 -334 6 -159 4 -195 -7 -202 -8 -5 -9 -9 -3 -9 7 0 9 -29 7 -82 -4 -86 -32
-369 -38 -379 -2 -3 -5 -26 -6 -52 -2 -26 -5 -47 -7 -47 -2 0 -29 15 -60 34
-75 46 -249 102 -342 110 -118 11 -116 7 -54 89 79 105 86 175 20 197 -38 12
-112 -1 -154 -27 -27 -17 -41 -10 -23 10 37 45 82 251 80 361 -2 73 -22 141
-44 150 -41 15 -167 -95 -221 -194 -15 -28 -29 -48 -31 -46 -3 2 0 13 5 23 6
10 20 59 31 108 48 206 122 437 189 596 53 125 126 283 154 334 28 52 96 145
107 145 4 0 14 -8 22 -17z m-4708 -576 c106 -69 350 -307 498 -488 71 -87 265
-353 293 -404 9 -16 31 -52 48 -80 17 -27 48 -79 68 -115 20 -36 44 -78 55
-95 12 -19 -4 -8 -46 33 -36 34 -70 62 -77 62 -6 0 -12 4 -12 9 0 10 -120 66
-175 80 -59 16 -142 14 -170 -5 -36 -24 -49 -73 -35 -137 31 -147 103 -264
254 -417 l100 -100 -41 0 c-100 0 -182 -60 -183 -133 -1 -81 112 -175 260
-217 25 -7 51 -14 59 -16 11 -4 11 -7 -2 -22 -46 -52 -160 -341 -159 -404 1
-34 -3 -34 -44 -3 -20 15 -35 21 -39 15 -4 -6 -11 -8 -16 -4 -5 3 -6 10 -3 16
4 6 -1 8 -14 4 -13 -4 -22 -1 -26 9 -3 8 -12 15 -19 15 -8 0 -37 24 -65 54
-28 30 -57 53 -65 52 -12 -1 -92 81 -147 150 -32 40 -138 190 -149 211 -6 12
-17 27 -23 35 -20 20 -124 237 -149 311 -7 20 -16 37 -19 37 -4 0 -7 6 -7 13
0 6 -11 48 -23 92 -41 144 -91 419 -90 493 0 13 -5 33 -11 44 -8 16 -8 23 2
29 10 6 11 9 2 9 -9 0 -13 17 -13 50 0 28 5 50 10 50 6 0 10 5 10 11 0 5 -4 8
-9 4 -11 -6 -2 66 8 75 3 3 7 118 8 255 1 219 4 260 22 329 19 72 50 126 73
126 5 0 32 -15 61 -33z m3527 -826 c208 -34 353 -68 345 -82 -3 -4 0 -11 6
-15 8 -4 9 -3 5 4 -11 18 13 15 100 -13 101 -33 139 -51 164 -77 11 -12 20
-17 20 -10 0 15 50 -3 66 -24 7 -8 16 -14 20 -12 11 3 87 -37 105 -55 8 -7 22
-18 32 -23 15 -9 4 -14 -56 -27 -100 -22 -216 -76 -303 -142 -40 -30 -75 -52
-78 -49 -3 2 -4 1 -1 -3 8 -10 -57 -73 -68 -66 -6 3 -7 1 -3 -6 5 -7 -3 -26
-18 -45 -53 -70 -124 -230 -151 -341 -24 -99 -27 -124 -23 -242 l5 -133 -26 1
c-24 2 -24 2 -4 6 17 3 22 10 19 26 -3 12 -5 70 -5 130 -1 86 -4 107 -16 107
-7 0 -19 -8 -24 -17 -10 -17 -10 -17 -11 -1 0 17 33 42 42 32 3 -2 10 13 16
36 5 22 6 38 2 35 -12 -7 -23 32 -16 59 4 17 1 22 -14 23 -11 1 -20 -3 -20 -8
0 -6 4 -8 9 -4 5 3 9 -8 9 -25 -1 -28 -3 -29 -31 -24 -54 9 -63 27 -22 46 14
6 25 18 25 27 0 12 -2 13 -9 3 -13 -22 -57 -40 -72 -31 -9 5 -9 9 -3 9 7 0 14
7 18 15 3 9 0 15 -9 15 -8 0 -15 -7 -15 -15 0 -8 -4 -15 -9 -15 -5 0 5 -14 22
-32 l32 -32 -25 -7 c-14 -4 -19 -7 -12 -8 6 -1 12 -7 12 -15 0 -15 -29 -43
-31 -30 -7 44 -5 54 12 59 21 7 26 25 7 25 -7 0 -22 -7 -32 -15 -11 -8 -25
-15 -30 -15 -6 0 -4 4 4 10 8 5 11 13 6 17 -4 4 -14 -1 -22 -11 -11 -16 -16
-17 -29 -6 -8 7 -22 10 -30 6 -8 -3 -15 -1 -15 4 0 6 9 10 20 10 10 0 30 5 44
11 20 10 29 9 43 -2 13 -11 15 -11 9 -1 -5 8 -22 20 -40 28 -17 7 -23 13 -14
14 29 0 31 19 3 32 -18 8 -22 14 -13 20 8 5 1 8 -20 8 -31 0 -32 -1 -18 -16 9
-9 29 -19 44 -23 24 -7 22 -8 -20 -12 l-48 -4 -6 43 c-4 27 -13 46 -25 53 -13
6 -19 6 -19 -1 0 -5 6 -10 13 -10 8 0 13 -18 14 -51 2 -41 0 -49 -11 -40 -7 6
-16 8 -19 5 -4 -4 -11 5 -16 20 -11 27 -25 33 -36 16 -3 -5 1 -10 9 -10 9 0
16 -4 16 -10 0 -5 -7 -10 -16 -10 -10 0 -14 -6 -10 -15 3 -10 -1 -15 -11 -15
-13 0 -14 -3 -5 -12 14 -14 46 8 35 25 -4 7 0 8 11 4 10 -4 23 -7 30 -7 7 0
21 -6 32 -14 18 -14 18 -15 -6 -12 -14 1 -31 5 -37 9 -6 4 -16 0 -23 -8 -7 -8
-20 -15 -29 -15 -18 0 -61 43 -61 60 0 6 -5 10 -11 10 -7 0 -5 -10 5 -25 9
-13 16 -31 16 -40 0 -9 5 -13 10 -10 12 7 12 3 4 -19 -9 -23 -23 -20 -33 7 -9
21 -9 21 -17 2 -4 -11 -11 -22 -14 -25 -4 -3 -10 -17 -14 -32 -5 -22 -3 -28
11 -29 17 -1 17 -2 1 -6 -10 -2 -18 -9 -18 -14 0 -6 10 -8 23 -4 21 6 21 6 -3
-14 -13 -11 -28 -17 -32 -15 -16 10 -8 -10 17 -42 23 -31 66 -117 65 -132 -1
-4 -14 19 -30 50 -16 32 -45 79 -65 105 -26 35 -32 49 -23 55 9 5 7 8 -7 8
-12 0 -44 27 -77 64 -125 137 -358 258 -551 285 -111 16 -265 14 -353 -4 -86
-18 -218 -61 -254 -83 -109 -66 -205 -141 -268 -210 -24 -26 -39 -38 -33 -27
13 27 78 93 125 129 29 22 35 31 25 38 -10 6 -6 7 11 2 23 -6 24 -6 10 11 -14
16 -13 17 7 11 16 -5 32 0 55 17 18 14 53 34 77 45 40 18 42 20 22 27 -12 4
-20 9 -18 12 3 2 15 -1 27 -7 17 -9 30 -8 66 9 24 12 54 21 66 22 22 1 22 1
-2 9 -16 6 -6 7 29 3 32 -4 52 -2 48 3 -6 10 2 11 93 15 34 2 43 4 24 6 -27 4
-30 7 -26 29 2 13 9 24 14 24 6 0 8 -9 5 -20 -3 -11 -2 -20 3 -20 4 0 10 10
13 21 5 17 11 20 31 17 14 -3 27 0 29 5 2 6 22 10 44 9 26 -1 45 4 53 13 16
20 5 32 -14 16 -8 -7 -25 -11 -38 -9 -21 3 -20 4 11 20 36 17 67 9 73 -19 2
-8 9 -7 23 4 12 9 14 13 5 11 -8 -3 -20 2 -27 11 -17 22 -16 31 2 31 12 0 13
4 5 19 -5 11 -10 28 -10 39 0 11 -7 22 -15 26 -18 7 -20 33 -2 39 6 2 -3 6
-20 9 -18 2 -33 1 -33 -4 0 -4 7 -8 16 -8 8 0 12 -5 9 -11 -4 -6 2 -17 14 -25
21 -15 28 -48 12 -58 -5 -4 -7 3 -4 13 7 27 -38 55 -77 49 -22 -3 -30 0 -31
11 -1 14 -2 14 -5 1 -4 -14 -121 -56 -131 -46 -2 2 9 7 25 10 16 4 29 13 29
21 0 17 -14 20 -19 5 -1 -5 -14 -11 -28 -12 -14 -2 -28 -7 -32 -13 -4 -5 -11
-6 -15 -1 -4 5 -2 11 5 13 6 3 10 9 6 14 -3 5 -1 9 5 9 5 0 11 -5 13 -10 6
-18 48 19 42 38 -5 16 -5 16 6 0 6 -10 17 -15 26 -11 8 3 14 2 13 -3 -4 -21 2
-35 11 -29 6 3 8 17 6 31 -3 16 0 24 10 24 8 0 14 5 14 10 0 6 -12 10 -26 10
-14 0 -23 4 -19 10 3 6 -4 10 -17 11 -15 0 -18 3 -8 6 8 3 20 12 27 20 8 10
18 13 30 8 16 -7 16 -8 -4 -14 -18 -5 -20 -9 -12 -21 8 -11 12 -12 16 -2 2 6
16 12 30 12 20 0 24 4 18 18 -13 31 -12 82 3 82 7 0 10 -4 7 -10 -3 -5 1 -10
10 -10 9 0 13 5 10 10 -3 6 -1 10 4 10 11 0 16 -26 12 -72 -1 -16 2 -28 8 -28
6 0 8 6 5 14 -3 8 2 26 11 40 16 24 16 26 1 26 -9 0 -16 7 -16 15 0 22 -69 20
-86 -2 -13 -17 -14 -17 -7 1 5 16 2 18 -25 14 -18 -2 -32 -1 -32 3 0 10 116
23 129 14 6 -3 11 -1 11 4 0 6 -8 11 -17 11 -13 0 -14 3 -5 12 15 15 42 -7 42
-36 1 -20 1 -20 15 -2 13 18 16 18 40 2 26 -17 34 -9 13 12 -10 10 -5 11 22 7
28 -5 32 -4 18 5 -10 6 -18 16 -18 22 0 7 5 6 15 -2 13 -11 15 -7 15 25 0 30
-3 36 -16 31 -9 -3 -18 -6 -20 -6 -2 0 -4 -7 -4 -15 0 -10 -10 -15 -34 -15
-19 0 -38 -5 -42 -12 -5 -8 0 -9 14 -6 12 4 24 3 27 -2 3 -4 -5 -10 -17 -13
-22 -6 -38 6 -38 29 0 14 43 26 64 18 11 -4 16 0 16 13 0 15 7 19 38 19 42 0
88 26 77 43 -9 15 8 14 24 -1 10 -11 12 -9 9 7 -2 12 3 20 12 21 8 0 17 2 20
3 3 1 18 4 34 6 16 2 33 9 37 16 4 7 27 12 56 11 59 -1 83 5 83 23 0 7 6 16
13 18 6 3 2 6 -10 6 -13 1 -22 -4 -20 -11 1 -8 -11 -14 -30 -16 -18 -2 -33 1
-33 7 0 5 -10 11 -22 13 -13 2 22 8 77 12 55 4 105 9 110 12 6 2 116 2 245 -1
170 -3 270 -10 360 -24z m1153 -450 c227 -46 436 -199 558 -407 84 -145 118
-269 126 -459 4 -118 2 -156 -16 -242 -57 -275 -197 -460 -427 -564 -123 -56
-243 -70 -376 -45 -109 21 -125 30 -133 68 -10 45 -58 127 -95 161 -16 16 -30
35 -30 43 0 21 -29 76 -52 97 -32 31 -85 47 -157 47 l-70 0 -39 53 c-126 168
-177 377 -146 602 16 119 40 193 97 297 159 291 430 415 760 349z m-2218 -416
c278 -49 532 -260 636 -530 191 -494 -33 -1021 -499 -1174 -94 -31 -174 -42
-282 -42 -386 2 -694 235 -809 611 -71 232 -45 497 71 709 75 137 207 269 333
333 193 99 357 126 550 93z m1128 -1017 c-2 -5 -9 -6 -14 -3 -5 4 -9 -5 -9
-19 0 -14 4 -26 10 -26 5 0 7 7 3 16 -5 13 -2 15 17 9 13 -4 32 -2 47 6 20 11
26 11 32 0 6 -9 10 -7 14 9 3 14 10 19 17 15 9 -6 9 -9 0 -15 -18 -11 -25 -95
-10 -130 25 -61 94 -107 213 -145 61 -19 117 -35 125 -35 12 0 13 -9 9 -44
-16 -116 -90 -228 -183 -278 -75 -39 -143 -52 -247 -44 -132 10 -222 50 -304
134 -69 70 -77 71 -127 11 -35 -41 -33 -52 8 -35 l33 14 6 -62 c10 -108 83
-293 160 -406 46 -67 137 -160 179 -181 111 -57 216 -27 290 83 47 69 131 302
162 448 5 24 9 25 78 26 85 1 134 22 204 86 42 39 104 144 104 178 0 16 6 16
88 -1 288 -61 510 11 752 242 63 61 90 78 90 57 0 -6 -7 -8 -15 -4 -9 3 -15 0
-15 -9 0 -8 -4 -15 -10 -15 -5 0 -7 -7 -4 -15 5 -11 2 -13 -10 -9 -12 5 -15 2
-10 -10 4 -10 13 -15 21 -12 8 3 11 1 8 -4 -3 -6 -13 -10 -21 -10 -20 0 -17
-20 4 -21 16 -1 16 -2 0 -6 -22 -5 -24 -23 -3 -23 8 0 15 -5 15 -11 0 -6 -7
-8 -17 -5 -10 4 -2 -7 17 -24 19 -17 30 -29 23 -26 -6 4 -14 2 -18 -4 -4 -6 6
-10 25 -10 17 0 40 -5 50 -10 13 -7 21 -7 25 0 3 5 23 9 43 9 22 -1 28 -3 15
-6 -14 -3 -20 -9 -16 -19 3 -8 0 -14 -7 -14 -7 0 -19 -8 -26 -17 -12 -17 -13
-16 -14 6 0 13 -3 21 -7 18 -3 -4 -11 1 -18 10 -14 19 -36 9 -34 -15 1 -15 2
-15 6 1 8 30 23 19 29 -23 7 -45 13 -48 39 -20 24 27 33 25 31 -4 -1 -18 -6
-24 -21 -23 -16 2 -20 -4 -20 -30 0 -18 -7 -39 -15 -47 -18 -18 -58 -11 -62
12 -3 13 -5 13 -17 -2 -12 -14 -12 -17 -1 -14 19 4 24 -27 7 -43 -8 -8 -13
-22 -11 -32 1 -10 -4 -17 -13 -17 -20 0 -53 -38 -52 -59 1 -13 2 -13 6 2 2 9
9 17 14 17 13 0 12 -2 -18 -56 -20 -36 -29 -44 -31 -31 -2 10 5 25 15 32 14
11 16 16 6 26 -11 11 -13 10 -13 -4 0 -9 -4 -17 -10 -17 -5 0 -10 -13 -10 -29
0 -16 -6 -32 -12 -35 -7 -3 -4 -4 8 -1 77 19 -93 -186 -276 -333 -153 -122
-171 -136 -250 -189 -189 -126 -323 -208 -465 -283 -55 -29 -108 -60 -117 -67
-9 -8 -20 -13 -25 -10 -11 7 -48 -21 -40 -29 4 -4 12 -3 19 3 14 10 28 11 363
17 127 3 240 8 252 11 22 7 22 6 12 -24 -15 -43 -114 -140 -188 -184 -51 -30
-72 -37 -115 -37 -29 0 -56 -3 -59 -7 -8 -8 23 -32 43 -33 40 -1 211 -111 259
-166 79 -92 121 -213 134 -392 4 -50 3 -52 -17 -46 -26 8 -264 150 -288 172
-22 19 -23 10 -3 -28 9 -17 16 -33 17 -37 1 -5 10 -26 20 -49 21 -48 48 -171
48 -219 0 -43 -36 -218 -56 -275 -53 -149 -110 -270 -133 -285 -5 -2 -34 47
-65 110 -31 63 -58 115 -60 115 -1 0 -3 -37 -4 -82 -1 -179 -91 -359 -279
-558 -31 -33 -61 -60 -67 -60 -7 0 -13 11 -14 26 -1 14 -6 33 -11 42 -5 10
-19 45 -30 79 -46 136 -209 444 -255 483 -22 17 -29 -5 -15 -47 14 -43 28
-203 17 -203 -24 0 -63 23 -277 166 -137 92 -237 197 -299 316 -17 31 -32 55
-34 53 -2 -2 0 -39 3 -82 4 -43 8 -109 8 -147 l1 -68 -32 6 c-144 28 -327 207
-394 383 -24 62 -26 77 -21 173 3 58 9 116 13 130 6 20 -5 14 -57 -35 -55 -51
-151 -113 -356 -230 -18 -11 -36 -16 -40 -11 -26 26 -7 248 29 332 27 64 84
143 115 160 18 9 42 32 53 51 26 44 25 49 -2 31 -13 -8 -52 -24 -88 -36 -110
-35 -380 -67 -380 -44 0 28 129 158 205 207 28 18 88 52 135 75 82 42 88 43
195 47 61 2 130 6 155 9 38 5 42 7 25 17 -11 6 -24 16 -30 23 -6 7 -75 18
-175 28 -91 9 -222 27 -290 42 -69 14 -136 28 -150 31 -48 10 -160 44 -160 49
0 3 10 2 21 -1 15 -5 19 -4 15 4 -4 6 -14 11 -22 11 -8 0 -14 8 -14 18 0 14
-2 15 -10 2 -8 -12 -11 -13 -19 -1 -5 8 -16 11 -30 6 -20 -6 -20 -5 4 21 14
15 24 33 21 40 -3 7 8 14 27 18 26 5 29 9 17 17 -12 8 -10 9 10 7 14 -2 24 -8
23 -13 -1 -6 25 -10 57 -10 59 0 71 9 25 17 -14 3 -25 1 -25 -6 0 -6 -4 -5 -9
3 -5 7 -13 11 -19 7 -5 -3 -12 1 -16 9 -3 8 -17 15 -31 15 -14 0 -25 5 -25 11
0 7 11 8 30 4 40 -9 38 8 -2 21 -19 5 -32 15 -30 23 2 8 -3 11 -12 8 -8 -3
-17 1 -21 11 -5 14 -7 14 -15 2 -8 -13 -10 -12 -10 3 0 9 -4 17 -10 17 -17 0
-60 43 -53 54 3 6 0 5 -8 -1 -20 -19 -28 -16 -22 10 5 20 5 21 -8 4 -14 -17
-15 -17 -35 5 -11 13 -20 27 -21 33 -1 5 -7 11 -13 13 -7 3 -9 -5 -4 -25 6
-27 6 -27 -9 -8 -8 11 -23 20 -33 20 -9 0 -19 5 -21 11 -2 7 6 10 22 7 15 -3
25 -1 25 6 0 7 -4 10 -9 7 -5 -4 -20 -2 -33 3 -22 9 -22 10 -1 10 12 1 24 7
26 14 4 9 8 9 14 1 5 -7 16 -8 31 -3 29 11 28 19 -2 13 -14 -2 -31 3 -40 11
-18 19 -26 19 -26 1 0 -8 -5 -18 -12 -22 -7 -5 -9 -2 -5 9 10 25 -14 72 -45
90 -16 9 -27 13 -24 8 3 -4 -6 -6 -19 -3 -14 2 -25 8 -25 13 0 5 7 6 15 3 9
-4 15 0 15 10 0 9 4 16 8 16 4 0 8 12 8 28 -1 16 4 26 12 24 7 -1 12 8 12 22
0 13 3 33 6 43 3 10 2 14 -3 8 -4 -5 -15 -10 -23 -10 -8 0 -15 -8 -16 -18 -1
-12 -1 -13 3 -2 6 19 23 20 23 1 0 -17 -28 -29 -43 -19 -7 5 -20 8 -29 8 -31
0 -24 18 11 30 25 8 30 13 19 17 -8 4 -21 1 -27 -5 -8 -8 -11 -8 -11 2 0 7 9
15 20 18 11 3 20 9 20 13 0 11 -40 0 -65 -17 -23 -16 -35 -17 -35 -3 0 6 11
16 25 22 19 8 24 17 20 35 -2 15 2 26 11 30 22 8 27 -2 14 -26 -12 -24 1 -28
20 -6 14 17 35 21 25 5 -3 -6 1 -13 10 -16 14 -6 14 -8 -2 -20 -17 -12 -16
-13 5 -7 25 6 29 21 7 29 -12 5 -12 8 0 20 7 8 18 14 24 14 6 0 11 4 11 10 0
5 -6 7 -13 4 -8 -3 -20 2 -27 11 -10 13 -9 15 6 16 14 1 13 3 -6 9 -35 11 -60
11 -35 -1 15 -7 11 -7 -14 -3 -21 4 -31 2 -27 -4 3 -5 -1 -12 -9 -16 -22 -8
-18 10 7 34 21 20 62 27 71 13 2 -5 2 -2 1 5 -2 6 1 12 6 12 6 0 10 5 10 10 0
7 -6 7 -19 1 -19 -10 -31 -6 -31 12 0 5 6 7 14 4 8 -3 17 -3 20 1 4 3 15 7 26
9 15 2 18 -1 13 -15 -6 -16 -6 -16 10 0 18 18 23 33 8 23 -18 -10 -21 13 -6
46 13 32 20 27 16 -13 -1 -9 2 -19 7 -22 6 -3 10 0 9 7 -1 40 3 48 24 42 15
-5 19 -4 14 5 -4 6 -16 10 -26 7 -12 -3 -19 0 -19 8 0 20 19 28 34 16 10 -8
17 -7 27 5 12 14 11 16 -6 12 -13 -2 -29 6 -42 22 -13 14 -23 19 -23 12 0 -7
-5 -10 -11 -6 -8 4 -7 9 2 15 7 4 19 4 25 -2 6 -5 18 -8 25 -6 8 2 11 2 7 0
-15 -9 -8 -25 8 -19 8 3 22 0 30 -8 12 -13 12 -17 -1 -30 -19 -19 -19 -26 0
-26 8 0 14 5 13 11 -6 23 19 18 66 -12 39 -26 50 -30 57 -18 8 12 10 12 19 -1
8 -13 10 -12 11 5 1 19 2 19 6 1 4 -15 7 -16 14 -5 5 9 1 22 -14 38 l-22 24
30 -18 30 -17 -33 31 c-50 48 -28 37 61 -30 99 -75 254 -151 362 -179 102 -27
277 -36 382 -21 347 51 659 294 776 605 45 118 67 189 67 216 0 18 4 20 23 14
28 -8 35 -16 21 -21 -7 -2 -10 -12 -7 -23 5 -20 27 -17 51 6 17 17 15 27 -3
20 -8 -3 -15 -1 -15 4 0 15 30 40 48 40 16 -1 15 -2 -1 -14 -10 -8 -15 -20
-11 -30 6 -15 8 -14 24 4 21 25 30 25 31 3 0 -10 7 -2 14 17 8 21 14 28 14 16
1 -17 2 -18 27 -1 l27 17 -7 -26 c-3 -14 -2 -26 3 -26 12 0 24 37 17 49 -3 5
5 4 18 -2 13 -7 22 -15 19 -19z m753 -197 c62 -198 -67 -411 -250 -411 -36 0
-60 5 -70 15 -14 14 -13 19 5 48 26 42 59 150 59 193 0 26 6 37 28 48 62 33
162 156 162 200 1 35 45 -28 66 -93z m-4036 -2085 c30 -7 89 -17 110 -20 23
-3 74 -18 85 -25 6 -3 15 -6 20 -6 11 -1 67 -26 127 -57 21 -11 43 -16 50 -12
6 4 8 3 4 -4 -3 -6 3 -14 16 -18 12 -3 26 -10 32 -15 6 -5 49 -37 96 -71 47
-34 108 -85 136 -112 175 -175 306 -482 331 -781 12 -135 -3 -252 -20 -160 -2
11 -7 -6 -11 -37 -9 -71 -24 -84 -22 -20 0 26 -3 67 -8 92 -4 25 -9 52 -10 60
-1 9 -6 22 -11 30 -5 8 -10 18 -10 21 0 10 -35 41 -35 30 0 -5 -10 -11 -22
-14 -23 -4 -23 -4 2 -16 18 -8 19 -10 5 -7 -11 2 -27 7 -37 11 -10 4 -16 2
-15 -7 2 -48 -4 -66 -25 -72 -19 -5 -20 -8 -8 -16 12 -7 12 -12 2 -22 -9 -9
-12 -9 -12 0 0 7 -4 12 -9 12 -5 0 -7 -10 -4 -22 4 -23 4 -23 -12 -3 -17 20
-17 20 -10 -2 7 -24 -10 -33 -18 -10 -3 6 -3 -7 -1 -30 3 -33 0 -43 -11 -43
-11 0 -14 -7 -9 -25 4 -15 2 -25 -4 -25 -6 0 -13 -14 -17 -31 -5 -20 -10 -28
-17 -21 -6 6 -6 17 1 31 10 17 9 21 -4 21 -11 0 -15 -11 -15 -41 0 -24 -4 -38
-10 -34 -5 3 -10 1 -10 -5 0 -8 9 -10 26 -6 25 7 25 6 10 -10 -9 -9 -25 -14
-36 -11 -12 3 -21 -1 -24 -12 -3 -9 -4 -4 -2 10 2 16 -2 26 -11 26 -8 0 -13
-12 -13 -32 0 -31 -20 -85 -31 -85 -4 0 -6 12 -6 26 0 18 2 22 8 13 6 -10 10
-9 15 6 5 11 3 20 -4 23 -7 2 -12 10 -12 18 0 9 5 12 10 9 6 -3 10 -2 10 4 0
21 -21 21 -29 -1 -8 -19 -10 -20 -10 -4 -1 13 -6 16 -17 12 -15 -6 -15 -4 0
18 9 14 16 33 16 43 -1 11 -6 5 -15 -14 -9 -21 -21 -33 -32 -32 -17 1 -17 2 0
6 20 5 13 23 -9 23 -16 0 -19 -36 -4 -43 6 -3 5 -4 -2 -3 -8 1 -14 21 -16 45
-3 38 -5 41 -19 29 -14 -11 -15 -11 -12 1 8 25 29 24 38 -1 8 -21 9 -20 9 9
-1 18 -4 30 -8 28 -4 -2 -18 8 -32 24 l-25 28 35 -1 c23 -1 37 4 39 14 4 13 3
13 -6 0 -6 -8 -11 -10 -11 -4 0 6 -12 11 -27 10 -24 -1 -28 3 -30 32 -2 17 2
32 7 32 6 0 10 -8 10 -19 0 -11 9 -21 22 -24 22 -6 38 7 37 28 0 6 -3 4 -6 -2
-6 -16 -33 -17 -33 -2 0 6 -6 17 -14 25 -13 12 -17 11 -30 -8 -9 -12 -16 -17
-16 -10 0 6 -9 12 -20 12 -11 0 -20 -4 -20 -10 0 -5 7 -7 15 -4 18 7 20 -7 4
-23 -8 -8 -8 -17 -1 -30 10 -17 11 -16 21 7 9 24 10 24 10 3 1 -12 -3 -24 -8
-27 -17 -11 -41 6 -41 28 -1 21 -1 21 -13 1 -18 -30 -40 -28 -77 7 -21 20 -31
25 -27 13 9 -23 -9 -45 -31 -38 -14 4 -15 3 -2 -5 8 -6 18 -8 23 -5 6 4 7 -6
3 -23 -4 -16 -8 -39 -9 -52 -1 -12 -6 -26 -12 -30 -5 -4 -10 -13 -11 -19 -2
-31 -5 -35 -19 -29 -11 4 -15 -1 -15 -19 0 -13 -4 -26 -9 -29 -4 -3 -6 -17 -3
-31 4 -23 2 -26 -21 -23 -35 5 -46 18 -16 19 22 0 22 1 4 8 -13 5 -24 3 -30
-5 -5 -7 -19 -14 -30 -17 -13 -3 -9 -5 12 -6 21 -1 36 -8 43 -21 6 -11 17 -20
25 -20 8 0 15 9 15 20 0 25 5 25 31 1 13 -12 17 -21 10 -26 -17 -10 -13 -34 9
-57 22 -24 27 -47 7 -29 -8 6 -17 8 -20 4 -4 -3 -7 3 -7 15 0 12 -4 22 -9 22
-5 0 -12 10 -16 23 -5 16 -8 18 -11 7 -3 -9 -13 -21 -24 -28 -16 -10 -20 -10
-20 2 0 8 8 17 18 21 15 6 14 8 -6 16 -13 5 -21 13 -17 18 3 5 1 12 -5 16 -10
6 -14 -19 -10 -65 2 -21 0 -22 -14 -11 -12 10 -13 18 -5 32 8 16 6 19 -15 19
-13 0 -27 -6 -29 -12 -3 -7 -6 -2 -7 12 l-2 25 -7 -25 c-4 -14 -4 -41 -1 -61
6 -34 5 -37 -16 -35 -21 1 -21 2 -7 19 9 9 14 20 11 23 -3 3 -15 -5 -27 -17
-25 -27 -28 -18 -5 16 17 26 7 34 -14 13 -6 -6 -15 -8 -19 -4 -4 4 -3 10 2 14
6 4 12 14 13 22 2 8 0 12 -4 8 -4 -4 -13 -3 -21 3 -10 9 -13 8 -13 -5 0 -9 5
-16 10 -16 7 0 7 -6 0 -20 -6 -11 -16 -20 -22 -20 -7 0 -6 5 2 15 10 13 9 15
-11 16 -17 1 -19 3 -6 6 18 5 24 33 7 33 -5 0 -10 -4 -10 -10 0 -5 -17 -9 -37
-8 -37 1 -37 1 -5 5 37 5 43 20 10 26 -19 4 -18 5 6 6 24 1 27 4 23 23 -4 12
-1 29 6 37 9 12 9 13 0 8 -14 -9 -42 41 -36 63 4 13 3 13 -6 0 -14 -19 -14
-53 -1 -45 6 3 10 1 10 -4 0 -6 -5 -11 -11 -11 -6 0 -8 -7 -5 -16 4 -10 2 -14
-6 -11 -7 2 -12 10 -11 16 2 6 -9 11 -25 10 -16 0 -21 -3 -12 -6 8 -3 26 -15
40 -26 l25 -20 -32 5 c-24 3 -30 1 -23 -7 12 -15 3 -25 -16 -18 -9 3 -14 -2
-14 -15 0 -11 8 -23 18 -25 16 -4 16 -5 -1 -6 -10 0 -21 9 -26 21 l-8 23 -7
-22 c-4 -12 -16 -25 -27 -28 -10 -4 -19 -10 -19 -15 0 -5 -7 -7 -15 -4 -8 4
-15 2 -15 -4 0 -21 29 -19 49 4 11 13 25 24 31 24 5 0 -8 -18 -30 -40 -37 -37
-46 -41 -88 -31 -2 1 0 6 4 12 4 8 9 8 17 0 14 -14 37 -14 37 -1 0 6 -9 10
-19 10 -11 0 -23 5 -26 10 -10 16 -25 1 -25 -26 0 -15 6 -24 15 -24 8 0 15 -5
15 -11 0 -6 -9 -9 -20 -6 -17 4 -20 0 -21 -26 0 -27 -2 -29 -9 -12 -8 18 -9
17 -9 -7 -1 -16 -6 -28 -12 -28 -7 0 -9 -10 -5 -25 9 -34 -21 -34 -34 0 -7 19
-17 25 -40 25 -16 0 -30 5 -30 10 0 6 12 8 28 4 15 -3 22 -2 16 3 -6 4 -14 18
-18 30 -4 12 -21 31 -39 43 -18 12 -24 19 -14 16 14 -4 17 1 17 34 0 33 -3 38
-19 35 -11 -2 -22 3 -25 11 -3 8 1 14 12 15 16 1 16 2 0 6 -10 2 -18 13 -18
24 0 10 -4 19 -10 19 -5 0 -7 -6 -4 -13 3 -8 -3 -20 -12 -28 -15 -13 -16 -11
-10 11 5 17 4 21 -2 11 -5 -7 -14 -11 -19 -8 -21 13 -47 -20 -45 -57 2 -27 -1
-36 -13 -36 -10 0 -15 -7 -13 -17 2 -12 -3 -18 -14 -17 -10 1 -18 -2 -18 -7 0
-5 7 -9 15 -9 8 0 15 -4 15 -10 0 -5 -7 -10 -15 -10 -9 0 -15 -9 -15 -24 0
-30 -9 -56 -20 -56 -5 0 -6 19 -4 43 2 23 1 34 -2 25 -3 -10 -10 -18 -15 -18
-7 0 -9 35 -7 90 2 50 0 90 -4 90 -5 0 -8 7 -8 16 0 11 6 14 18 10 15 -6 15
-5 -1 8 -10 8 -14 17 -9 20 5 3 12 18 15 33 3 16 30 95 61 178 31 82 56 157
56 167 0 10 4 18 8 18 10 0 11 6 15 65 2 22 6 45 10 52 4 6 7 22 8 34 0 13 2
54 4 90 6 127 -27 222 -113 327 -67 82 -213 162 -321 177 l-54 7 72 68 c150
142 370 265 562 314 132 34 420 52 519 32z m3987 -1014 c7 -7 19 -12 25 -10
14 5 48 -33 48 -51 0 -7 -7 -14 -15 -17 -10 -4 -12 -10 -6 -18 6 -7 2 -27 -11
-55 -11 -25 -21 -54 -23 -65 -1 -12 -15 -66 -30 -121 -15 -55 -28 -104 -29
-110 -1 -5 -5 -16 -9 -22 -6 -9 -3 -11 7 -7 9 3 16 2 16 -4 0 -5 -9 -12 -20
-15 -11 -3 -20 -10 -20 -16 0 -6 4 -10 9 -9 5 2 9 -1 10 -7 1 -5 -5 -10 -11
-10 -9 0 -14 -18 -15 -50 -2 -64 -2 -63 -14 -45 -9 13 -10 13 -8 0 3 -15 -8
-55 -57 -211 -13 -42 -21 -85 -17 -95 4 -11 3 -15 -5 -10 -6 3 -13 2 -17 -4
-3 -5 -1 -10 4 -10 6 0 11 -5 11 -11 0 -5 -4 -7 -10 -4 -5 3 -10 3 -10 -2 0
-4 -3 -19 -7 -32 -4 -17 -3 -22 5 -17 7 4 12 2 12 -3 0 -6 -6 -11 -14 -11 -12
0 -20 -17 -31 -70 -32 -150 -177 -599 -197 -611 -7 -4 -13 -16 -14 -27 -2 -10
-14 -38 -27 -61 -29 -51 -28 -54 -51 124 -9 66 -26 194 -38 285 -18 142 -22
219 -23 555 -1 215 0 437 2 494 l4 103 20 -36 c10 -20 19 -41 19 -47 0 -6 13
-40 30 -75 27 -58 32 -64 59 -64 25 0 50 19 140 108 141 138 237 286 257 396
l7 39 15 -29 c8 -15 21 -34 29 -42z m-1286 -1948 c33 -95 110 -288 168 -423
46 -106 44 -101 32 -101 -5 0 -13 14 -16 31 -6 24 -9 28 -17 18 -6 -10 -7 -7
-3 9 6 21 5 22 -14 10 -12 -7 -21 -19 -21 -26 0 -7 4 -11 9 -8 11 7 23 -22 15
-35 -10 -17 -22 -9 -29 20 -11 53 -89 146 -155 186 -56 34 -160 71 -160 57 0
-3 -2 -3 -5 0 -3 3 11 43 31 89 39 90 68 203 79 313 l8 69 24 -64 c14 -35 38
-101 54 -145z"/>
<path d="M6673 8034 c-16 -17 -17 -27 -1 -18 8 5 9 -2 5 -24 -4 -19 -2 -32 3
-32 6 0 10 9 10 20 0 11 5 20 11 20 6 0 8 -7 5 -16 -3 -9 -6 -22 -6 -31 0 -10
-6 -13 -16 -9 -12 5 -15 2 -10 -10 4 -12 2 -15 -9 -10 -13 4 -14 2 -5 -14 7
-12 7 -21 0 -25 -5 -3 -10 -15 -10 -26 0 -10 -4 -19 -10 -19 -23 0 -7 -18 36
-38 25 -12 43 -18 39 -12 -3 5 -1 10 4 10 6 0 11 -9 11 -20 0 -40 20 -19 21
23 0 23 2 52 5 64 3 20 0 22 -31 21 -39 -1 -51 5 -40 22 5 8 11 7 23 -2 13
-11 14 -10 8 16 -5 19 -3 32 4 36 9 6 9 13 1 28 -8 15 -8 22 2 26 6 4 2 4 -10
2 -15 -3 -23 2 -25 14 -2 15 -5 16 -15 4z"/>
<path d="M5660 7992 c-45 -5 -77 -23 -88 -48 -13 -27 -6 -54 14 -54 7 0 11 -6
8 -13 -5 -13 -2 -14 91 -18 19 0 35 -5 35 -11 0 -5 5 -6 10 -3 6 4 8 11 5 16
-4 5 -2 9 3 9 10 0 26 -29 24 -41 -1 -4 8 -5 19 -2 12 3 18 11 15 19 -3 8 -1
14 4 14 6 0 10 -7 10 -15 0 -19 17 -20 22 -1 3 12 6 12 23 -1 13 -10 14 -14 4
-10 -9 3 -16 0 -16 -8 0 -10 6 -11 24 -2 13 5 23 14 23 20 0 5 6 7 14 4 9 -4
16 3 19 18 2 14 1 22 -4 20 -12 -8 -37 23 -35 42 2 10 1 12 -1 6 -5 -14 -23
-18 -23 -5 0 5 -22 19 -50 32 -27 13 -48 26 -46 29 4 6 -61 8 -104 3z"/>
<path d="M5883 7224 c-29 -7 -80 -66 -107 -123 -18 -40 -21 -64 -20 -176 1
-119 4 -138 32 -219 18 -49 43 -107 56 -131 28 -47 108 -124 113 -108 5 15 53
3 53 -13 0 -8 6 -11 16 -7 11 4 12 8 4 13 -7 4 -10 12 -6 18 3 6 -2 8 -13 5
-11 -3 -27 4 -40 18 -27 29 -19 37 9 9 23 -23 41 -20 22 3 -9 10 -8 14 3 14 8
0 15 -4 15 -9 0 -5 7 -16 15 -24 14 -14 19 -11 16 8 -1 8 35 48 44 48 3 0 5
-7 5 -15 0 -8 5 -15 11 -15 5 0 7 -6 3 -12 -4 -7 3 -3 15 9 11 12 21 26 21 30
0 4 -5 2 -11 -4 -8 -8 -17 -5 -34 13 -12 13 -25 21 -29 17 -4 -4 -4 0 -1 9 5
13 10 12 31 -9 13 -13 29 -21 34 -18 15 9 12 25 -5 25 -8 0 -15 5 -15 10 0 6
5 10 10 10 6 0 10 10 10 22 0 41 8 13 15 -49 4 -42 2 -63 -4 -63 -6 0 -11 -5
-11 -11 0 -8 5 -7 16 1 8 7 14 23 13 34 0 12 -1 28 0 36 1 13 2 13 11 0 8 -12
10 -9 10 12 0 18 7 29 20 33 40 13 20 198 -39 356 -38 99 -127 229 -158 229
-6 0 -13 5 -15 11 -4 12 -80 20 -115 13z m154 -158 c32 -27 66 -111 61 -153
-8 -70 -107 -14 -143 82 -32 83 17 126 82 71z"/>
<path d="M4064 7018 c-86 -28 -178 -132 -224 -253 -29 -75 -40 -276 -20 -364
27 -121 116 -254 204 -306 51 -30 57 -31 50 -7 -5 14 -4 14 4 2 6 -8 9 -17 6
-21 -9 -15 74 -34 151 -34 127 1 216 51 293 168 50 76 67 145 67 282 0 97 -4
134 -23 192 -46 147 -139 265 -252 322 -56 27 -72 31 -144 30 -45 -1 -95 -6
-112 -11z m266 -196 c46 -46 63 -97 47 -147 -12 -40 -37 -51 -91 -41 -27 5
-41 17 -65 55 -37 57 -40 106 -10 145 31 39 72 35 119 -12z"/>
</g>
</svg>
