<?xml version="1.0" standalone="no"?>
<!DOCTYPE svg PUBLIC "-//W3C//DTD SVG 20010904//EN"
 "http://www.w3.org/TR/2001/REC-SVG-20010904/DTD/svg10.dtd">
<svg version="1.0" xmlns="http://www.w3.org/2000/svg"
 width="1024.000000pt" height="1024.000000pt" viewBox="0 0 1024.000000 1024.000000"
 preserveAspectRatio="xMidYMid meet">
<metadata>
Created by potrace 1.16, written by Peter Selinger 2001-2019
</metadata>
<g transform="translate(0.000000,1024.000000) scale(0.100000,-0.100000)"
fill="#000000" stroke="none">
<path d="M4755 9489 c-389 -31 -761 -145 -870 -269 -30 -33 -26 -135 18 -470
20 -157 43 -357 51 -445 21 -222 41 -593 33 -601 -4 -4 -53 10 -109 30 -57 20
-112 36 -124 36 -40 0 -84 -69 -84 -131 0 -16 -3 -29 -7 -29 -5 0 -45 51 -89
113 -412 568 -878 1066 -1181 1264 -258 168 -411 155 -516 -44 -119 -229 -240
-773 -277 -1252 -15 -185 -15 -589 -1 -761 47 -561 180 -1124 391 -1640 77
-190 80 -210 55 -331 -33 -154 -118 -303 -250 -434 -93 -92 -158 -134 -276
-175 -46 -16 -92 -39 -102 -51 -50 -62 13 -185 189 -369 53 -54 127 -125 165
-156 l71 -58 -104 -20 c-57 -12 -117 -29 -132 -39 -25 -17 -28 -24 -23 -54 15
-89 255 -335 507 -520 336 -245 724 -449 1191 -624 l37 -14 -55 -75 c-107
-145 -163 -304 -163 -462 1 -149 50 -286 114 -317 38 -18 68 -3 166 84 78 70
152 125 167 125 5 0 15 -30 23 -68 29 -148 106 -319 200 -444 69 -91 207 -218
279 -257 113 -60 159 -37 169 84 l5 65 104 -110 c166 -174 324 -304 588 -480
176 -118 166 -118 343 2 250 167 423 309 595 487 54 55 100 101 103 101 2 0 4
-27 4 -61 0 -119 45 -147 153 -93 105 53 255 192 334 309 83 123 153 295 169
414 4 28 11 51 17 51 16 0 115 -77 182 -141 73 -70 99 -82 141 -64 60 25 101
129 111 280 6 101 -13 223 -50 310 -23 55 -94 171 -138 224 l-28 35 138 56
c550 226 1082 572 1419 924 183 192 173 236 -72 291 -28 6 -26 7 79 108 177
167 294 319 302 391 7 56 -20 87 -99 116 -76 27 -135 60 -209 117 -193 146
-349 439 -349 655 0 61 7 85 64 227 174 430 292 911 362 1471 21 172 30 713
15 906 -38 482 -141 977 -252 1210 -68 145 -163 206 -284 183 -252 -47 -725
-472 -1216 -1094 -116 -147 -310 -405 -316 -422 -11 -29 -20 -9 -26 59 -7 82
-29 121 -71 126 -28 4 -35 2 -150 -42 l-68 -26 6 107 c24 384 57 709 111 1102
35 254 34 281 -10 330 -82 90 -334 183 -610 225 -234 35 -591 46 -860 25z
m-2602 -650 c125 -63 429 -322 411 -350 -4 -8 -3 -9 5 -5 14 9 146 -129 146
-153 0 -9 6 -16 14 -16 25 0 391 -449 377 -462 -3 -4 -13 2 -22 13 -14 18 -15
18 -4 -4 6 -13 17 -21 24 -19 14 6 25 -5 76 -76 25 -35 31 -50 22 -56 -9 -5
-6 -13 10 -27 19 -16 20 -16 9 -1 -8 9 -11 20 -8 23 6 6 67 -74 67 -88 0 -5
-6 -6 -12 -2 -8 4 -10 3 -5 -2 5 -5 14 -9 20 -9 11 0 157 -212 157 -228 0 -4
-5 -5 -12 -1 -7 4 -8 3 -4 -5 4 -6 11 -9 16 -6 4 3 34 -39 66 -93 70 -118 126
-195 156 -216 37 -26 93 -20 130 13 32 28 33 33 36 114 l4 85 121 -55 c205
-91 371 -139 599 -174 171 -27 620 -37 819 -20 338 30 664 115 859 225 l45 25
-4 -56 c-4 -67 11 -123 39 -148 23 -20 79 -26 119 -11 14 5 21 4 18 -1 -7 -11
29 -10 40 1 5 4 3 7 -2 6 -33 -7 -32 5 3 53 22 28 79 116 127 194 48 79 91
141 95 138 5 -3 12 0 16 6 4 8 3 9 -4 5 -30 -18 0 30 150 244 139 200 223 306
238 302 6 -1 9 2 5 8 -3 5 35 61 86 123 79 97 96 112 120 111 16 -1 26 2 23 7
-2 4 -12 5 -21 2 -27 -11 -11 11 87 117 229 246 382 381 522 459 71 40 89 33
124 -46 120 -270 210 -813 221 -1328 15 -697 -104 -1376 -352 -2010 -26 -66
-59 -155 -74 -197 -14 -43 -28 -78 -31 -78 -3 0 -11 24 -18 52 -19 83 -130
294 -209 398 -83 112 -217 247 -290 296 -136 90 -372 179 -538 203 -166 25
-397 6 -565 -45 -92 -28 -214 -86 -300 -143 -79 -51 -237 -208 -303 -299 -56
-77 -147 -245 -147 -270 0 -7 -3 -11 -7 -9 -5 3 -8 -5 -9 -16 -1 -12 -11 -58
-22 -102 -12 -44 -27 -106 -33 -137 -6 -32 -14 -58 -19 -58 -14 0 -80 47 -74
53 3 3 0 8 -7 13 -8 5 -10 3 -4 -6 6 -10 1 -11 -21 -6 -16 4 -69 10 -117 13
-110 7 -216 -10 -291 -47 -31 -15 -58 -24 -60 -21 -2 3 -11 46 -21 95 -21 116
-59 235 -101 319 -44 88 -129 215 -180 269 -9 9 -13 22 -9 28 3 6 3 9 -2 8
-15 -5 -86 60 -79 71 4 6 1 9 -6 6 -7 -3 -31 12 -53 31 -118 107 -264 180
-459 232 -92 24 -119 26 -291 26 -201 1 -235 -4 -405 -54 -157 -47 -269 -104
-391 -201 -22 -17 -43 -28 -47 -24 -4 4 4 15 17 26 13 10 19 19 14 19 -14 0
-44 -35 -47 -54 -1 -8 -29 -43 -62 -78 -149 -157 -249 -324 -308 -518 -36
-117 -40 -121 -64 -74 -51 100 -169 395 -222 554 -93 282 -154 536 -199 835
-40 265 -46 361 -46 760 0 350 2 408 23 565 47 357 133 746 192 867 11 23 20
46 20 51 0 10 39 62 46 62 3 0 24 -10 47 -21z m1672 -2978 c102 -28 243 -96
322 -156 141 -105 265 -268 328 -430 55 -140 70 -221 69 -385 0 -126 -4 -158
-27 -244 -91 -330 -308 -575 -617 -699 -235 -94 -536 -81 -775 32 -215 102
-369 256 -475 475 -78 160 -95 239 -94 436 0 170 8 220 55 348 117 319 401
561 744 633 125 26 355 21 470 -10z m2947 14 c405 -84 703 -363 805 -754 20
-77 25 -122 26 -231 2 -188 -33 -330 -120 -490 -243 -449 -817 -641 -1287
-430 -141 63 -292 184 -388 310 -66 86 -151 265 -178 370 -30 121 -37 291 -16
407 73 420 367 730 776 817 89 20 291 20 382 1z m-4474 -1008 c6 -7 16 -53 22
-102 37 -299 131 -505 327 -715 35 -38 87 -86 114 -107 27 -20 47 -43 45 -50
-3 -7 1 -10 8 -7 7 3 32 -11 57 -29 93 -72 279 -147 464 -188 81 -18 359 -18
450 0 378 75 731 344 883 671 42 91 70 187 92 318 11 62 24 121 29 130 15 28
164 74 261 79 68 4 101 1 163 -16 102 -28 155 -55 162 -84 2 -12 12 -62 20
-111 24 -133 60 -238 126 -365 32 -63 56 -118 52 -124 -3 -6 -1 -7 4 -4 6 4
24 -10 39 -31 120 -156 328 -321 494 -388 275 -112 602 -124 890 -32 171 55
292 126 425 251 55 50 96 84 92 74 -4 -11 -3 -16 4 -12 5 4 7 14 5 23 -4 11 8
30 30 52 56 54 165 226 201 318 42 104 71 227 79 334 3 45 8 90 11 98 2 8 17
-19 32 -60 85 -231 225 -403 444 -547 53 -36 97 -68 97 -73 0 -13 -92 -121
-159 -189 -122 -122 -162 -156 -170 -142 -6 9 -11 10 -15 2 -4 -6 -2 -11 5
-11 21 0 -21 -38 -108 -97 -54 -37 -83 -63 -83 -75 0 -25 80 -62 206 -94 54
-13 99 -26 102 -28 6 -7 -8 -26 -19 -26 -6 0 -7 6 -3 13 6 9 5 9 -8 0 -8 -7
-19 -9 -23 -5 -5 4 -5 1 -1 -6 4 -7 12 -10 17 -7 22 14 6 -14 -25 -44 -21 -21
-39 -30 -47 -26 -7 5 -10 4 -5 -3 8 -13 -203 -202 -227 -202 -1 0 -3 9 -3 20
0 14 5 19 16 15 11 -5 12 -3 3 6 -16 17 -31 3 -28 -26 3 -19 -5 -32 -29 -50
-34 -26 -52 -32 -41 -15 3 6 -1 7 -10 3 -12 -4 -13 -8 -5 -13 26 -16 -376
-272 -431 -275 -41 -3 -56 10 -30 25 13 6 30 18 39 25 81 66 110 82 128 73 18
-9 18 -9 0 6 -17 14 -17 22 -1 14 2 -2 12 7 21 20 9 13 26 27 38 32 15 6 16 9
5 9 -16 1 -65 -34 -103 -72 -26 -25 -144 -111 -258 -187 -53 -36 -95 -66 -93
-68 4 -5 55 21 55 28 0 4 14 13 30 20 17 7 30 16 30 21 0 5 9 9 19 9 31 0 55
12 41 20 -8 5 -7 9 4 13 9 4 16 2 16 -3 0 -6 5 -10 11 -10 5 0 8 4 5 9 -3 5 6
9 19 9 40 0 48 5 -122 -81 -104 -53 -145 -71 -156 -69 -4 1 -47 -18 -95 -42
-128 -64 -267 -121 -664 -269 -32 -11 -58 -24 -58 -28 0 -10 169 -29 266 -29
84 0 94 -2 136 -30 67 -44 152 -138 186 -206 29 -57 71 -218 60 -229 -3 -3
-36 15 -74 41 -126 84 -226 124 -314 124 l-47 0 -12 -122 c-28 -283 -101 -467
-240 -603 l-51 -49 0 49 c0 28 -7 79 -16 115 -15 64 -71 200 -83 200 -3 0 -18
-22 -33 -48 -121 -220 -449 -546 -805 -801 l-103 -73 -96 67 c-323 225 -592
487 -752 730 -36 55 -69 104 -73 109 -21 25 -99 -200 -99 -286 0 -27 -4 -48
-8 -48 -15 0 -111 106 -147 163 -69 109 -145 402 -145 558 l0 42 -72 -5 c-92
-6 -172 -39 -289 -117 l-89 -59 0 28 c0 46 38 179 67 233 29 54 127 160 177
193 26 16 50 19 180 20 140 1 266 16 266 32 0 4 -105 42 -233 86 -127 43 -293
104 -367 136 -74 32 -180 75 -235 95 -127 48 -336 149 -490 238 -121 71 -357
224 -391 255 -16 14 -116 97 -134 110 -2 2 2 8 10 13 12 9 12 10 -3 5 -11 -4
-31 4 -52 21 -27 21 -33 33 -30 55 2 16 0 26 -5 23 -5 -3 -6 -13 -3 -22 9 -24
-8 -13 -68 41 -51 46 -52 49 -34 62 16 12 16 14 3 14 -9 0 -18 -5 -20 -12 -4
-12 -28 -3 -28 10 0 4 39 16 88 26 48 9 119 29 157 42 39 14 78 28 88 31 10 3
17 15 17 29 0 17 -14 32 -59 59 -33 21 -58 42 -55 49 5 12 -74 71 -83 62 -3
-2 14 -15 36 -28 37 -21 52 -38 34 -38 -26 0 -269 206 -267 226 1 7 -4 10 -11
8 -6 -3 -18 2 -25 11 -12 14 -11 18 1 27 11 8 10 9 -4 4 -20 -6 -50 19 -103
89 -28 37 -35 75 -13 75 22 0 113 67 243 180 16 14 33 24 38 22 5 -1 7 2 3 8
-3 5 8 25 25 43 73 81 160 227 201 341 30 83 45 100 67 73z"/>
<path d="M2137 8153 c-2 -4 -8 -23 -12 -41 -4 -19 -11 -30 -17 -26 -7 4 -8 2
-4 -5 4 -6 -2 -60 -13 -119 -10 -59 -24 -147 -31 -197 -6 -49 -13 -110 -16
-134 -9 -72 -5 -579 6 -686 13 -134 13 -154 -1 -135 -9 13 -10 13 -6 0 2 -8 9
-14 14 -13 6 1 13 -28 17 -65 3 -37 15 -121 27 -187 12 -66 23 -129 24 -140 2
-11 8 -35 14 -52 5 -18 7 -33 3 -33 -3 0 -1 -5 6 -12 13 -13 16 -54 5 -61 -5
-2 -3 -3 3 -1 10 2 59 -137 57 -163 0 -7 3 -13 8 -13 5 0 8 -3 7 -7 -1 -5 3
-19 9 -33 6 -14 10 -44 8 -67 -1 -23 2 -40 6 -37 5 3 7 17 3 32 -5 25 26 -27
93 -159 45 -89 84 -107 113 -54 7 13 17 22 21 19 5 -3 6 1 3 9 -3 8 1 21 8 28
7 8 36 44 63 81 31 41 55 66 64 63 8 -3 11 0 8 9 -8 20 40 66 61 59 12 -3 13
-2 4 4 -10 7 -8 14 8 28 29 26 25 47 -15 89 -19 21 -35 43 -35 49 0 7 -7 21
-15 31 -12 16 -12 22 -2 28 9 6 9 8 0 8 -16 0 -17 44 -3 71 9 17 19 18 83 14
40 -2 91 -7 115 -11 23 -3 42 -2 42 3 0 5 -8 9 -17 9 -10 1 -61 4 -113 9 -90
7 -96 6 -115 -14 -38 -43 -12 -142 54 -205 17 -17 31 -35 31 -41 0 -6 -27 -40
-61 -75 -71 -75 -133 -154 -179 -228 -48 -78 -62 -72 -134 63 -53 99 -123 274
-146 365 -5 19 -16 60 -24 90 -82 288 -121 673 -113 1120 4 259 8 301 35 460
17 96 38 197 46 225 14 44 15 69 3 48z"/>
<path d="M8056 7243 c-7 -269 -24 -447 -62 -667 -34 -200 -99 -452 -140 -544
-16 -38 -17 -42 -5 -42 4 0 14 21 21 48 7 26 16 52 20 57 4 6 13 35 20 65 7
30 17 62 21 70 23 42 100 464 118 645 12 119 27 605 19 605 -3 0 -8 -107 -12
-237z"/>
<path d="M2700 6975 c-47 -25 -67 -123 -45 -227 17 -86 63 -182 145 -307 58
-88 77 -107 77 -76 0 8 -4 12 -8 9 -11 -7 -73 88 -72 111 1 11 -1 14 -4 7 -3
-9 -12 -3 -24 18 -11 17 -16 36 -13 42 4 7 2 8 -4 4 -13 -8 -65 96 -78 154
-13 64 -16 190 -5 190 6 0 11 -8 12 -17 0 -12 2 -13 6 -5 3 7 -1 19 -7 27 -10
12 -9 20 5 41 15 23 22 26 61 21 51 -5 165 -74 157 -94 -3 -7 0 -13 7 -13 6 0
8 5 5 10 -17 27 17 3 85 -61 41 -39 68 -68 59 -66 -9 3 -16 -1 -16 -7 0 -8 10
-12 24 -10 16 1 32 -6 46 -22 11 -13 28 -24 36 -23 9 0 11 2 6 5 -6 2 -43 35
-83 74 -91 88 -190 163 -256 194 -71 34 -87 37 -116 21z"/>
<path d="M7313 6971 c-28 -11 -78 -36 -110 -57 -70 -46 -240 -210 -229 -221 4
-4 13 -1 19 8 27 36 86 97 138 142 55 46 78 59 63 35 -4 -7 -3 -8 4 -4 6 4 9
13 6 20 -6 16 49 41 67 30 8 -4 10 -3 5 5 -8 12 61 47 72 37 3 -3 11 -1 17 4
20 16 63 -8 69 -39 15 -75 17 -123 7 -174 -13 -71 -66 -203 -80 -200 -6 2 -8
-3 -5 -11 3 -7 -2 -19 -11 -26 -8 -7 -15 -17 -15 -22 0 -6 -10 -22 -22 -37
-13 -16 -36 -44 -51 -64 -19 -24 -34 -34 -45 -30 -15 4 -15 3 -2 -6 8 -6 18
-11 22 -11 13 0 135 176 165 240 42 88 52 122 59 200 11 115 -22 201 -76 200
-8 -1 -38 -9 -67 -19z"/>
<path d="M7319 6346 c-3 -3 -23 -6 -46 -7 -23 -2 -40 -6 -38 -10 3 -3 17 -4
32 -2 185 27 234 3 204 -96 -12 -42 -88 -134 -102 -125 -20 12 -7 -17 21 -49
35 -41 40 -58 8 -31 l-23 19 18 -22 c11 -12 25 -19 32 -17 7 3 16 -3 20 -15 3
-11 21 -33 40 -49 30 -27 67 -83 64 -98 0 -3 3 -9 7 -12 4 -4 4 -1 0 6 -4 6
-2 12 3 12 6 0 11 -4 11 -9 0 -5 6 -16 14 -24 24 -23 56 -89 49 -101 -3 -6 -3
-8 2 -4 4 4 16 3 27 -3 16 -8 23 -6 39 13 24 27 80 119 105 170 9 20 20 36 23
34 3 -2 7 10 7 27 1 25 -8 13 -45 -61 -25 -50 -61 -112 -79 -138 -37 -51 -45
-50 -83 15 -33 53 -96 137 -164 216 -96 111 -91 98 -47 142 43 42 72 105 72
158 0 28 -5 37 -30 50 -26 14 -130 21 -141 11z"/>
<path d="M3712 5241 c-148 -38 -245 -264 -214 -503 14 -112 34 -176 78 -245
43 -68 96 -103 168 -110 186 -19 309 182 293 477 -7 119 -32 205 -81 278 -55
82 -157 125 -244 103z"/>
<path d="M6328 5239 c-89 -26 -175 -150 -198 -291 -26 -151 3 -351 65 -447 87
-136 240 -162 347 -58 189 184 156 674 -54 783 -38 20 -113 26 -160 13z"/>
<path d="M4935 4098 c-27 -5 -64 -10 -82 -11 -17 -1 -29 -4 -27 -6 2 -2 -15
-13 -39 -23 -23 -11 -54 -31 -69 -45 -24 -23 -29 -24 -45 -12 -17 13 -17 13
-4 -4 9 -12 11 -21 5 -25 -31 -22 -54 -82 -54 -144 0 -84 32 -148 117 -239 74
-78 137 -121 220 -150 32 -12 64 -25 71 -31 31 -26 5 -192 -44 -269 -84 -133
-316 -136 -473 -5 -24 20 -50 36 -58 36 -75 0 -70 -99 9 -165 82 -69 254 -123
357 -111 85 10 170 42 229 86 l52 40 53 -40 c83 -64 145 -84 257 -83 77 0 108
5 163 26 85 33 150 78 188 129 33 46 36 69 13 92 -24 25 -63 19 -100 -14 -46
-40 -101 -67 -176 -86 -108 -28 -201 -3 -271 75 -40 45 -55 87 -64 182 -8 97
-1 116 49 130 136 36 285 156 349 279 29 57 32 158 6 207 -44 83 -150 154
-266 179 -75 15 -288 17 -366 2z"/>
</g>
</svg>
